# Blender 4.3.2
# www.blender.org
mtllib untitled.mtl
o cube.003
v 0.500000 0.500000 -0.312500
v -0.500000 0.500000 -0.312500
v 0.500000 0.062500 -0.312500
v -0.500000 0.062500 -0.312500
v -0.500000 0.500000 0.312500
v 0.500000 0.500000 0.312500
v -0.500000 0.062500 0.312500
v 0.500000 0.062500 0.312500
v 0.250000 -0.437500 -0.187500
v -0.250000 -0.437500 -0.187500
v 0.250000 -0.437500 -0.187500
v -0.250000 -0.437500 -0.187500
v -0.250000 -0.437500 0.187500
v 0.250000 -0.437500 0.187500
v -0.250000 -0.437500 0.187500
v 0.250000 -0.437500 0.187500
v 0.375000 -0.250000 -0.312500
v -0.375000 -0.250000 -0.312500
v 0.375000 -0.375000 -0.312500
v -0.375000 -0.375000 -0.312500
v -0.375000 -0.250000 0.312500
v 0.375000 -0.250000 0.312500
v -0.375000 -0.375000 0.312500
v 0.375000 -0.375000 0.312500
v 0.250000 0.062500 -0.187500
v -0.250000 0.062500 -0.187500
v 0.250000 -0.250000 -0.187500
v -0.250000 -0.250000 -0.187500
v -0.250000 0.062500 0.187500
v 0.250000 0.062500 0.187500
v -0.250000 -0.250000 0.187500
v 0.250000 -0.250000 0.187500
v 0.437500 -0.375000 -0.375000
v -0.437500 -0.375000 -0.375000
v 0.437500 -0.500000 -0.375000
v -0.437500 -0.500000 -0.375000
v -0.437500 -0.375000 0.375000
v 0.437500 -0.375000 0.375000
v -0.437500 -0.500000 0.375000
v 0.437500 -0.500000 0.375000
vn -1.0000 -0.0000 -0.0000
vn -0.0000 -0.0000 -1.0000
vn 1.0000 -0.0000 -0.0000
vn -0.0000 -0.0000 1.0000
vn -0.0000 1.0000 -0.0000
vn -0.0000 -1.0000 -0.0000
vn -0.0000 -0.0000 -0.0000
vt 0.562500 0.750000
vt 0.875000 0.750000
vt 0.875000 0.968750
vt 0.562500 0.968750
vt 0.031250 0.750000
vt 0.531250 0.750000
vt 0.531250 0.968750
vt 0.031250 0.968750
vt 0.031250 0.718750
vt 0.031250 0.406250
vt 0.531250 0.406250
vt 0.531250 0.718750
vt 0.031250 0.031250
vt 0.406250 0.031250
vt 0.406250 0.093750
vt 0.031250 0.093750
vt 0.031250 0.125000
vt 0.468750 0.125000
vt 0.468750 0.187500
vt 0.031250 0.187500
vt 0.062500 0.437500
vt 0.500000 0.437500
vt 0.500000 0.687500
vt 0.062500 0.687500
vt 0.093750 0.031250
vt 0.093750 0.093750
vt 0.375000 0.125000
vt 0.375000 0.187500
vt 0.812500 0.281250
vt 0.937500 0.281250
vt 0.937500 0.656250
vt 0.812500 0.656250
vt 0.312500 0.218750
vt 0.500000 0.218750
vt 0.500000 0.375000
vt 0.312500 0.375000
vt 0.031250 0.218750
vt 0.281250 0.218750
vt 0.281250 0.375000
vt 0.031250 0.375000
vt 0.562500 0.218750
vt 0.937500 0.218750
vt 0.937500 0.718750
vt 0.562500 0.718750
s 1
usemtl m_dea6542a-3581-e6c7-8988-b4777c1388dc
f 4/1/1 7/2/1 5/3/1 2/4/1
f 3/5/2 4/6/2 2/7/2 1/8/2
f 8/1/3 3/2/3 1/3/3 6/4/3
f 7/5/4 8/6/4 6/7/4 5/8/4
f 6/9/5 1/10/5 2/11/5 5/12/5
f 7/10/6 4/11/6 3/12/6 8/9/6
s 0
f 12/13/1 15/14/1 13/15/1 10/16/1
f 11/17/7 12/18/7 10/19/7 9/20/7
f 16/13/3 11/14/3 9/15/3 14/16/3
f 15/17/7 16/18/7 14/19/7 13/20/7
s 1
f 14/21/5 9/22/5 10/23/5 13/24/5
f 15/21/6 12/22/6 11/23/6 16/24/6
f 20/25/1 23/14/1 21/15/1 18/26/1
f 19/17/2 20/27/2 18/28/2 17/20/2
f 24/25/3 19/14/3 17/15/3 22/26/3
f 23/17/4 24/27/4 22/28/4 21/20/4
f 22/21/5 17/22/5 18/23/5 21/24/5
f 23/29/6 20/30/6 19/31/6 24/32/6
f 28/33/1 31/34/1 29/35/1 26/36/1
f 27/37/2 28/38/2 26/39/2 25/40/2
f 32/33/3 27/34/3 25/35/3 30/36/3
f 31/37/4 32/38/4 30/39/4 29/40/4
f 30/41/5 25/42/5 26/43/5 29/44/5
f 31/41/6 28/42/6 27/43/6 32/44/6
f 36/13/1 39/14/1 37/15/1 34/16/1
f 35/17/2 36/18/2 34/19/2 33/20/2
f 40/13/3 35/14/3 33/15/3 38/16/3
f 39/17/4 40/18/4 38/19/4 37/20/4
f 38/21/5 33/22/5 34/23/5 37/24/5
f 39/21/6 36/22/6 35/23/6 40/24/6
